<svg width="528" height="176" xmlns="http://www.w3.org/2000/svg"><title>HOME</title><path fill="#ff0" stroke="#ff0" stroke-width="null" stroke-dasharray="null" stroke-linejoin="null" stroke-linecap="square" d="M33.5 113.5h13v13h-13zM17.5 97.5h13v13h-13zM17.5 33.5h13v13h-13zM65.5 81.5h13v13h-13zM33.5 49.5h13v13h-13zM49.5 65.5h13v13h-13zM81.5 97.5h13v13h-13zM97.5 113.5h13v13h-13zM81.5 33.5h13v13h-13zM97.5 49.5h13v13h-13zM129.5 17.5h13v13h-13zM145.5 97.5h13v13h-13zM129.5 81.5h13v13h-13zM145.5 33.5h13v13h-13zM177.5 129.5h13v13h-13zM193.5 145.5h13v13h-13zM193.5 81.5h13v13h-13zM209.5 97.5h13v13h-13zM193.5 17.5h13v13h-13zM209.5 33.5h13v13h-13zM257.5 17.5h13v13h-13zM257.5 145.5h13v13h-13zM241.55 129.5h13v13h-13zM241.5 65.5h13v13h-13zM257.5 81.5h13v13h-13zM273.5 33.5h13v13h-13zM289.5 49.5h13v13h-13zM305.5 65.5h13v13h-13zM321.5 81.5h13v13h-13zM305.5 129.5h13v13h-13zM321.5 145.5h13v13h-13zM369.5 129.5h13v13h-13zM385.5 145.5h13v13h-13zM385.5 81.5h13v13h-13zM369.5 65.5h13v13h-13zM353.5 49.5h13v13h-13zM337.5 33.5h13v13h-13zM321.5 17.5h13v13h-13zM417.5 113.5h13v13h-13zM433.5 129.5h13v13h-13zM449.5 145.5h13v13h-13zM417.5 49.5h13v13h-13zM433.5 65.5h13v13h-13zM449.5 81.5h13v13h-13zM449.5 17.5h13v13h-13zM465.5 33.5h13v13h-13z"/><path fill="#0f0" stroke="#0f0" stroke-width="null" stroke-dasharray="null" stroke-linejoin="null" stroke-linecap="square" d="M49.5 97.5h13v13h-13zM17.5 65.5h13v13h-13zM33.5 81.5h13v13h-13zM129.5 49.5h13v13h-13zM145.5 65.5h13v13h-13zM193.5 49.5h13v13h-13zM81.5 65.5h13v13h-13zM97.5 81.5h13v13h-13zM209.5 65.5h13v13h-13zM177.5 33.5h13v13h-13zM161.5 17.5h13v13h-13zM257.5 49.5h13v13h-13zM241.5 33.5h13v13h-13zM321.5 49.5h13v13h-13zM305.5 33.5h13v13h-13zM289.5 17.5h13v13h-13zM385.5 49.5h13v13h-13zM369.5 33.5h13v13h-13zM353.5 17.5h13v13h-13zM481.5 81.5h13v13h-13zM417.5 81.5h13v13h-13zM433.5 97.5h13v13h-13zM433.5 33.5h13v13h-13zM417.5 17.5h13v13h-13zM481.5 17.5h13v13h-13zM497.5 33.5h13v13h-13zM33.5 145.5h13v13h-13zM17.5 129.5h13v13h-13zM81.5 129.5h13v13h-13zM97.5 145.5h13v13h-13zM129.5 113.5h13v13h-13zM145.5 129.5h13v13h-13zM161.5 145.5h13v13h-13zM209.5 129.5h13v13h-13zM193.5 113.5h13v13h-13zM257.5 113.5h13v13h-13zM241.5 97.5h13v13h-13zM305.5 97.5h13v13h-13zM321.5 113.5h13v13h-13zM369.5 97.5h13v13h-13zM385.5 113.5h13v13h-13zM465.5 129.5h13v13h-13zM481.5 145.5h13v13h-13z"/><path d="M15 79.8v64.7l8.3 8.3 8.2 8.2H49v-48h30v31.5l8.3 8.3 8.2 8.2H113V31.5l-8.3-8.3-8.2-8.2H79v48H49V31.5l-8.3-8.3-8.2-8.2H15v64.8zM31 40v7H17V33h14v7zm64 0v7H81V33h14v7zM47 56v7H33V49h14v7zm64 0v7H97V49h14v7zM31 72v7H17V65h14v7zm32 0v7H49V65h14v7zm32 0v7H81V65h14v7zM47 88v7H33V81h14v7zm32 0v7H65V81h14v7zm32 0v7H97V81h14v7zm-80 16v7H17V97h14v7zm32 0v7H49V97h14v7zm32 0v7H81V97h14v7zm-48 16v7H33v-14h14v7zm64 0v7H97v-14h14v7zm-80 16v7H17v-14h14v7zm64 0v7H81v-14h14v7zm-48 16v7H33v-14h14v7zm64 0v7H97v-14h14v7zM127 79.8v64.7l8.3 8.3 8.2 8.2H225V31.5l-8.3-8.3-8.2-8.2H127v64.8zM143 24v7h-14V17h14v7zm32 0v7h-14V17h14v7zm32 0v7h-14V17h14v7zm-48 16v7h-14V33h14v7zm32 0v7h-14V33h14v7zm32 0v7h-14V33h14v7zm-80 16v7h-14V49h14v7zm48 32v39h-30V49h30v39zm16-32v7h-14V49h14v7zm-48 16v7h-14V65h14v7zm64 0v7h-14V65h14v7zm-80 16v7h-14V81h14v7zm64 0v7h-14V81h14v7zm-48 16v7h-14V97h14v7zm64 0v7h-14V97h14v7zm-80 16v7h-14v-14h14v7zm64 0v7h-14v-14h14v7zm-48 16v7h-14v-14h14v7zm32 0v7h-14v-14h14v7zm32 0v7h-14v-14h14v7zm-48 16v7h-14v-14h14v7zm32 0v7h-14v-14h14v7zM239 79.8v64.7l8.3 8.3 8.2 8.2H273V65h30v79.5l8.3 8.3 8.2 8.2H337V65h30v79.5l8.3 8.3 8.2 8.2H401V31.5l-8.3-8.3-8.2-8.2H239v64.8zM271 24v7h-14V17h14v7zm32 0v7h-14V17h14v7zm32 0v7h-14V17h14v7zm32 0v7h-14V17h14v7zM255 40v7h-14V33h14v7zm32 0v7h-14V33h14v7zm32 0v7h-14V33h14v7zm32 0v7h-14V33h14v7zm32 0v7h-14V33h14v7zM271 56v7h-14V49h14v7zm32 0v7h-14V49h14v7zm32 0v7h-14V49h14v7zm32 0v7h-14V49h14v7zm32 0v7h-14V49h14v7zM255 72v7h-14V65h14v7zm64 0v7h-14V65h14v7zm64 0v7h-14V65h14v7zM271 88v7h-14V81h14v7zm64 0v7h-14V81h14v7zm64 0v7h-14V81h14v7zm-144 16v7h-14V97h14v7zm64 0v7h-14V97h14v7zm64 0v7h-14V97h14v7zm-112 16v7h-14v-14h14v7zm64 0v7h-14v-14h14v7zm64 0v7h-14v-14h14v7zm-144 16v7h-14v-14h14v7zm64 0v7h-14v-14h14v7zm64 0v7h-14v-14h14v7zm-112 16v7h-14v-14h14v7zm64 0v7h-14v-14h14v7zm64 0v7h-14v-14h14v7zM415 79.8v64.7l8.3 8.3 8.2 8.2H513v-17.5l-8.3-8.3-8.2-8.2H449v-22h64V79l-8-4-8-4h-48V49h64V31.5l-8.3-8.3-8.2-8.2H415v64.8zM431 24v7h-14V17h14v7zm32 0v7h-14V17h14v7zm32 0v7h-14V17h14v7zm-48 16v7h-14V33h14v7zm32 0v7h-14V33h14v7zm32 0v7h-14V33h14v7zm-80 16v7h-14V49h14v7zm16 16v7h-14V65h14v7zm-16 16v7h-14V81h14v7zm32 0v7h-14V81h14v7zm32 0v7h-14V81h14v7zm-48 16v7h-14V97h14v7zm-16 16v7h-14v-14h14v7zm16 16v7h-14v-14h14v7zm32 0v7h-14v-14h14v7zm-16 16v7h-14v-14h14v7zm32 0v7h-14v-14h14v7z"/><path fill="#00f" stroke="#00f" stroke-width="null" stroke-dasharray="null" stroke-linejoin="null" stroke-linecap="square" d="M33.5 129.5h13v13h-13zM17.5 113.55h13v13h-13zM97.5 129.5h13v13h-13zM81.5 113.5h13v13h-13zM65.5 97.5h13v13h-13zM49.5 81.5h13v13h-13zM33.5 65.5h13v13h-13zM17.5 49.5h13v13h-13zM97.5 65.5h13v13h-13zM81.5 49.5h13v13h-13zM129.5 97.5h13v13h-13zM129.5 33.5h13v13h-13zM145.5 49.5h13v13h-13zM209.5 49.5h13v13h-13zM193.5 33.5h13v13h-13zM177.5 17.5h13v13h-13zM145.5 113.5h13v13h-13zM161.5 129.5h13v13h-13zM177.5 145.5h13v13h-13zM193.5 97.5h13v13h-13zM209.5 113.5h13v13h-13zM241.5 81.5h13v13h-13zM257.5 97.5h13v13h-13zM273.5 49.5h13v13h-13zM257.5 33.5h13v13h-13zM241.5 17.5h13v13h-13zM305.5 17.5h13v13h-13zM369.5 17.5h13v13h-13zM321.5 33.5h13v13h-13zM337.5 49.5h13v13h-13zM305.5 81.5h13v13h-13zM369.5 81.5h13v13h-13zM321.5 97.5h13v13h-13zM385.5 97.5h13v13h-13zM385.5 33.5h13v13h-13zM433.5 17.5h13v13h-13zM449.5 33.5h13v13h-13zM417.5 65.5h13v13h-13zM433.5 81.5h13v13h-13zM497.5 81.5h13v13h-13zM417.5 129.5h13v13h-13zM433.5 145.5h13v13h-13zM481.5 129.5h13v13h-13zM497.5 145.5h13v13h-13z"/><path fill="#f00" stroke="#f00" stroke-width="null" stroke-dasharray="null" stroke-linejoin="null" stroke-linecap="square" d="M33.5 97.5h13v13h-13zM65.5 65.5h13v13h-13zM17.5 81.5h13v13h-13zM81.5 81.5h13v13h-13zM97.5 97.5h13v13h-13zM33.5 33.5h13v13h-13zM17.5 17.5h13v13h-13zM81.5 17.5h13v13h-13zM97.5 33.5h13v13h-13zM129.5 65.5h13v13h-13zM145.5 81.5h13v13h-13zM145.5 17.5h13v13h-13zM161.5 33.5h13v13h-13zM193.5 65.5h13v13h-13zM209.5 81.5h13v13h-13zM129.5 129.5h13v13h-13zM145.5 145.5h13v13h-13zM193.5 129.5h13v13h-13zM209.5 145.5h13v13h-13zM241.5 49.5h13v13h-13zM257.5 65.5h13v13h-13zM241.5 113.5h13v13h-13zM257.5 129.5h13v13h-13zM305.5 113.5h13v13h-13zM321.5 129.5h13v13h-13zM321.5 65.5h13v13h-13zM305.5 49.5h13v13h-13zM289.5 33.5h13v13h-13zM273.5 17.5h13v13h-13zM369.5 113.5h13v13h-13zM385.5 129.5h13v13h-13zM385.5 65.5h13v13h-13zM369.5 49.5h13v13h-13zM353.5 33.5h13v13h-13zM337.5 17.5h13v13h-13zM417.5 97.5h13v13h-13zM433.5 113.5h13v13h-13zM417.5 33.5h13v13h-13zM433.5 49.5h13v13h-13zM449.5 129.5h13v13h-13zM465.5 145.5h13v13h-13zM465.5 81.5h13v13h-13zM481.5 33.5h13v13h-13zM465.5 17.5h13v13h-13zM449.5 73h13v5.5h-13zM481.5 97.5h13v5.5h-13z"/><path fill="#ff0" stroke="#ff0" stroke-width="null" stroke-dasharray="null" stroke-linejoin="null" stroke-linecap="square" d="M465.5 97.5h13v5.5h-13z"/><path fill="#00f" stroke="#00f" stroke-width="null" stroke-dasharray="null" stroke-linejoin="null" stroke-linecap="square" d="M449.5 97.5h13v5.5h-13z"/><path fill="#0f0" stroke="#0f0" stroke-width="null" stroke-dasharray="null" stroke-linejoin="null" stroke-linecap="square" d="M465.5 73h13v5.5h-13zM497.5 97.5h13v5.5h-13z"/><path fill="#00f" stroke="#00f" stroke-width="null" stroke-dasharray="null" stroke-linejoin="null" stroke-linecap="square" d="M481.5 73h13v5.5h-13z"/><path fill="#0f0" d="M33 30.99V17l13.962 13.99H33z"/><path fill="#f00" d="M30.964 145v13.99L17 145h13.964zM94.962 145v13.99L81 145H94.96z"/><path fill="#0f0" d="M97 30.988v-13.99l13.964 13.99H97z"/><path fill="#ff0" d="M142.96 145v13.99L129 145h13.963z"/><path fill="#f00" d="M209 30.99V17l13.962 13.99H209z"/><path fill="#00f" d="M254.962 145v13.988L241 144.998h13.962zM318.958 144.998v13.99l-13.963-13.99h13.963zM382.96 145v13.988l-13.962-13.99h13.962z"/><path fill="#ff0" d="M385 30.99V17l13.962 13.99H385zM497.02 142.99V129l13.962 13.99H497.02z"/><path fill="#0f0" d="M430.963 145.003v13.99L417 145.002h13.963z"/><path fill="#00f" d="M497 30.988v-13.99l13.964 13.99H497z"/><path fill="#ff0" d="M497 78.955v-6.457l14.017 6.457H497z"/></svg>
